<?xml version="1.0" encoding="utf-8"?>
<!-- Generator: Adobe Illustrator 22.0.1, SVG Export Plug-In . SVG Version: 6.00 Build 0)  -->
<svg version="1.1" id="Layer_1" xmlns="http://www.w3.org/2000/svg" xmlns:xlink="http://www.w3.org/1999/xlink" x="0px" y="0px"
	 viewBox="0 0 53 53" style="enable-background:new 0 0 53 53;" xml:space="preserve">
<style type="text/css">
	.st0{fill:#5AE4A7;}
	.st1{fill:#DDDDDD;}
	.st2{fill:#283E42;}
	.st3{fill:#FFFFFF;}
	.st4{fill:#4BC98C;}
	.st5{fill:#DBDBDB;}
	.st6{fill:#C9C9C9;}
	.st7{fill:#FFDDAB;}
	.st8{fill:#F9CE95;}
</style>
<g>
	<g>
		<path d="M45.4476547,29.190979c0.2463264-0.9853096,0.3743591-2.0100098,0.3743591-3.0741596
			c0-1.2612247-0.4039497-2.847559-1.0640869-4.6013775h-0.0098648C42.4621391,15.4852943,37.062664,7.4747863,34.3727264,3.671447
			c-0.7685089-1.0936787-2.374567-1.0936787-3.143137,0c-0.3732185,0.5270541-0.8034496,1.1441953-1.2660961,1.8190691v33.6865807
			H6.2645955c2.0833182,6.2674522,7.9910836,10.7940178,14.9641418,10.7940178c3.6160679,0,6.9661446-1.2217751,9.6264896-3.2810364
			c2.0691242,2.1381035,4.9758015,3.4584427,8.1879177,3.4584427c6.3256683,0,11.4590912-5.1334801,11.4590912-11.4591484
			C50.5022354,34.7382736,48.4922256,31.2502403,45.4476547,29.190979z"/>
		<path d="M39.0429688,50.6489258c-3.109375,0-6.015625-1.1679688-8.2333984-3.2988281
			c-2.7587891,2.015625-6.1435547,3.1210938-9.5810547,3.1210938c-7.0205078,0-13.2246094-4.4755859-15.4384766-11.1367188
			c-0.0507813-0.1523438-0.0244141-0.3193359,0.0693359-0.4501953c0.09375-0.1298828,0.2451172-0.2070313,0.4052734-0.2070313
			h23.1992188V5.4907227c0-0.1005859,0.0302734-0.1992188,0.0869141-0.2822266
			c0.4638672-0.6777344,0.8964844-1.296875,1.2705078-1.8261719c0.4599609-0.6552734,1.1826172-1.03125,1.9794922-1.03125
			c0.7978516,0,1.5205078,0.3759766,1.9814453,1.0332031c2.90625,4.1103516,8.1103516,11.8818359,10.4013672,17.8701172
			c0.0166016,0.0263672,0.03125,0.0546875,0.0419922,0.0849609c0.7275391,1.9326172,1.0966797,3.5400391,1.0966797,4.7773438
			c0,0.9707031-0.1044922,1.9306641-0.3105469,2.8583984c3.1318359,2.2509766,4.9902344,5.8564453,4.9902344,9.7138672
			C51.0019531,45.2836914,45.6367188,50.6489258,39.0429688,50.6489258z M30.8554688,46.1899414
			c0.1308594,0,0.2617188,0.0517578,0.359375,0.1523438c2.0634766,2.1318359,4.8427734,3.3066406,7.828125,3.3066406
			c6.0429688,0,10.9589844-4.9169922,10.9589844-10.9599609c0-3.640625-1.8076172-7.0361328-4.8349609-9.0839844
			c-0.1738281-0.1181641-0.2558594-0.3320313-0.2050781-0.5361328c0.2392578-0.9521484,0.3603516-1.9453125,0.3603516-2.9521484
			c0-1.0996094-0.3369141-2.5605469-1.0009766-4.3427734c-0.0166016-0.0253906-0.0302734-0.0527344-0.0410156-0.0810547
			c-2.234375-5.8955078-7.421875-13.640625-10.3154297-17.7324219c-0.5439453-0.7734375-1.7822266-0.7734375-2.3261719-0.0019531
			c-0.3486328,0.4941406-0.7480469,1.0644531-1.1748047,1.6875v33.53125c0,0.2763672-0.2236328,0.5-0.5,0.5H6.9746094
			c2.2558594,5.8867188,7.8984375,9.7939453,14.2539063,9.7939453c3.4140625,0,6.6367188-1.0986328,9.3212891-3.1767578
			C30.6396484,46.2241211,30.7480469,46.1899414,30.8554688,46.1899414z"/>
	</g>
	<g>
		<g>
			<g>
				<path class="st0" d="M42.8626633,26.1181393c0,7.1914501-5.8258476,13.0172977-13.0172997,13.0172977
					s-13.0271339-5.8258476-13.0271339-13.0172977c0-2.0532608,1.0708847-4.961298,2.6034851-8.0559406
					C22.0644741,12.7079,26.0727768,6.7739983,28.273428,3.6694617c0.7663307-1.0904913,2.3775425-1.0904913,3.1438122,0
					c2.6918678,3.8020291,8.0855026,11.8187542,10.3745384,17.8508759h0.0098343
					C42.4598312,23.2691059,42.8626633,24.8508167,42.8626633,26.1181393z"/>
				<path d="M29.8457031,39.6352539c-7.4589844,0-13.5273438-6.0634766-13.5273438-13.5175781
					c0-1.9355469,0.8935547-4.7207031,2.6552734-8.2773438c2.8076172-5.6884766,7.1533203-12.0068359,8.8916016-14.4599609
					c0.453125-0.6435547,1.1933594-1.0292969,1.9804688-1.0292969c0,0,0,0,0.0009766,0
					c0.7861328,0,1.5263672,0.3857422,1.9794922,1.03125c2.3320313,3.2929688,8.0009766,11.6083984,10.4013672,17.8769531
					c0.0166016,0.0263672,0.03125,0.0546875,0.0419922,0.0849609c0.7353516,1.953125,1.0927734,3.5146484,1.0927734,4.7734375
					C43.3623047,33.5717773,37.2988281,39.6352539,29.8457031,39.6352539z M29.8457031,3.3510742
					c-0.46875,0-0.8925781,0.2207031-1.1630859,0.6054688c-1.7255859,2.4355469-6.0361328,8.7021484-8.8125,14.3271484
					c-1.6933594,3.4179688-2.5517578,6.0537109-2.5517578,7.8339844c0,6.9023438,5.6201172,12.5175781,12.5273438,12.5175781
					c6.9013672,0,12.5166016-5.6152344,12.5166016-12.5175781c0-1.1035156-0.3359375-2.5625-0.9970703-4.3388672
					c-0.0166016-0.0253906-0.0302734-0.0527344-0.0410156-0.0810547
					C38.9833984,15.527832,33.3310547,7.2368164,31.0087891,3.9584961
					C30.7382813,3.5717773,30.3144531,3.3510742,29.8457031,3.3510742L29.8457031,3.3510742z"/>
			</g>
		</g>
		<g>
			<g>
				<path d="M28.6689453,35.1274414c-4.1210938,0-7.4736328-3.3525391-7.4736328-7.4736328c0-0.2763672,0.2236328-0.5,0.5-0.5
					s0.5,0.2236328,0.5,0.5c0,3.5693359,2.9042969,6.4736328,6.4736328,6.4736328c0.2763672,0,0.5,0.2236328,0.5,0.5
					S28.9453125,35.1274414,28.6689453,35.1274414z"/>
			</g>
		</g>
	</g>
	<g>
		<g>
			<g>
				<path class="st3" d="M34.0278931,34.2121201c0,8.7061119-7.0528831,15.7589951-15.7589931,15.7589951
					S2.4980011,42.918232,2.4980011,34.2121201c0-2.4857178,1.2964323-6.0062428,3.1518278-9.7526779
					c3.1993761-6.4820156,8.0519047-13.6657114,10.716054-17.4241238c0.9277344-1.3201699,2.8782997-1.3201699,3.8059616,0
					c3.2588291,4.6028094,9.7884655,14.308012,12.5596161,21.6106148h0.0119057
					C33.5402184,30.7630253,34.0278931,32.6778755,34.0278931,34.2121201z"/>
				<path d="M18.2685547,50.4711914c-8.9716797,0-16.2705078-7.2939453-16.2705078-16.2587891
					c0-2.3271484,1.078125-5.6835938,3.203125-9.9746094c3.4013672-6.8896484,8.65625-14.5273438,10.7568359-17.4912109
					c0.5361328-0.7626953,1.3789063-1.2011719,2.3115234-1.2011719c0.9316406,0,1.7744141,0.4384766,2.3115234,1.203125
					c2.8232422,3.9863281,9.6845703,14.0537109,12.5830078,21.6289063c0.0185547,0.0292969,0.0351563,0.0595703,0.046875,0.0927734
					c0.8867188,2.3544922,1.3173828,4.2333984,1.3173828,5.7421875
					C34.5283203,43.1772461,27.234375,50.4711914,18.2685547,50.4711914z M18.2695313,6.5454102
					c-0.6025391,0-1.1464844,0.2832031-1.4941406,0.7773438C14.6865234,10.269043,9.4677734,17.8549805,6.0976563,24.6811523
					c-2.0566406,4.1523438-3.0996094,7.359375-3.0996094,9.53125c0,8.4140625,6.8505859,15.2587891,15.2705078,15.2587891
					c8.4140625,0,15.2597656-6.8447266,15.2597656-15.2587891c0-1.3486328-0.4101563-3.1318359-1.2197266-5.2998047
					c-0.0175781-0.0283203-0.0322266-0.0576172-0.0449219-0.0888672c-2.8378906-7.4785156-9.6865234-17.5263672-12.5-21.4990234
					C19.4150391,6.8286133,18.8710938,6.5454102,18.2695313,6.5454102z"/>
			</g>
		</g>
		<g>
			<path class="st0" d="M34.0278931,34.2121201c0,8.7061119-7.0528831,15.7589951-15.7589931,15.7589951
				S2.4980011,42.918232,2.4980011,34.2121201c0-2.4857178,1.2964323-6.0062428,3.1518278-9.7526779
				c0.9157562,0.5708694,1.0941892,2.1170197,2.0337558,2.7949638c1.1179996,0.7968483,2.6523175,0.0357151,3.6988864-0.844471
				c1.0348082-0.8920193,2.1765451-1.9743023,3.5324306-1.8077755c0.7849445,0.0950966,1.4509811,0.6065845,2.0219231,1.1536427
				c0.7016811,0.6660385,1.3439808,1.4153385,1.9029446,2.2121887c0.3211498,0.4519615,0.630394,0.93964,1.0941887,1.2250748
				c1.0704517,0.630394,2.438242-0.0475483,3.401619-0.8325653c0.9514713-0.7968502,1.9386597-1.7721329,3.1755657-1.7721329
				c1.118-0.0119057,2.0575657,0.7849445,3.0685635,1.2488117c0.9871159,0.4519615,2.081377,0.5946789,3.1517544,0.808754h0.0119057
				C33.5402184,30.7630253,34.0278931,32.6778755,34.0278931,34.2121201z"/>
			<path d="M18.2685547,50.4711914c-8.9716797,0-16.2705078-7.2939453-16.2705078-16.2587891
				c0-2.3271484,1.078125-5.6835938,3.203125-9.9746094c0.0625-0.1269531,0.1757813-0.2207031,0.3115234-0.2597656
				s0.28125-0.0185547,0.4013672,0.0576172c0.5820313,0.3623047,0.8955078,0.9785156,1.1992188,1.5751953
				c0.2558594,0.5009766,0.4970703,0.9746094,0.8632813,1.2382813c0.8398438,0.6005859,2.1464844-0.03125,3.0839844-0.8222656
				l0.1923828-0.1660156c1.046875-0.9091797,2.2441406-1.9375,3.7226563-1.7548828
				c0.9765625,0.1171875,1.7460938,0.75,2.3066406,1.2880859c0.7197266,0.6826172,1.3818359,1.453125,1.9667969,2.2871094
				l0.1074219,0.1523438c0.2646484,0.3779297,0.5146484,0.734375,0.8388672,0.9335938
				c0.9951172,0.5859375,2.4140625-0.4589844,2.8251953-0.7939453l0.3076172-0.2617188
				c0.8964844-0.7666016,1.9248047-1.5898438,3.2128906-1.6230469c0.9082031,0,1.6728516,0.4326172,2.4130859,0.8515625
				c0.2763672,0.1572266,0.5527344,0.3134766,0.8339844,0.4433594c0.7460938,0.3417969,1.5654297,0.4941406,2.4326172,0.65625
				l0.6083984,0.1162109c0.2089844,0,0.3085938,0.1191406,0.3818359,0.3144531
				c0.8867188,2.3544922,1.3173828,4.2333984,1.3173828,5.7421875
				C34.5283203,43.1772461,27.234375,50.4711914,18.2685547,50.4711914z M5.7939453,25.3022461
				c-1.8554688,3.8525391-2.7958984,6.8476563-2.7958984,8.9101563c0,8.4140625,6.8505859,15.2587891,15.2705078,15.2587891
				c8.4140625,0,15.2597656-6.8447266,15.2597656-15.2587891c0-1.3125-0.3886719-3.0361328-1.1552734-5.1259766
				l-0.3349609-0.0634766c-0.8896484-0.1660156-1.8085938-0.3378906-2.6660156-0.7314453
				c-0.3076172-0.140625-0.609375-0.3105469-0.9101563-0.4804688c-0.6630859-0.3759766-1.2871094-0.7285156-1.9462891-0.7226563
				c-0.9199219,0-1.7421875,0.703125-2.5371094,1.3828125l-0.3212891,0.2724609
				c-1.4609375,1.1904297-2.9091797,1.5107422-3.9775391,0.8798828c-0.5078125-0.3125-0.8447266-0.7919922-1.1416016-1.2158203
				l-0.1054688-0.1494141c-0.5488281-0.7822266-1.1669922-1.5019531-1.8398438-2.140625
				c-0.4511719-0.4316406-1.0546875-0.9365234-1.7373047-1.0195313c-1.0693359-0.1259766-2.015625,0.7089844-2.9462891,1.5175781
				l-0.2001953,0.1728516c-1.5927734,1.3388672-3.2041016,1.6640625-4.3154297,0.8730469
				c-0.5644531-0.4072266-0.8867188-1.0390625-1.1708984-1.5966797C6.0820313,25.7895508,5.9462891,25.5219727,5.7939453,25.3022461
				z"/>
		</g>
		<g>
			<g>
				<path d="M16.8447266,45.0131836c-4.9316406,0-8.9433594-4.0107422-8.9433594-8.9414063c0-0.2763672,0.2236328-0.5,0.5-0.5
					s0.5,0.2236328,0.5,0.5c0,4.3789063,3.5634766,7.9414063,7.9433594,7.9414063c0.2763672,0,0.5,0.2236328,0.5,0.5
					S17.1210938,45.0131836,16.8447266,45.0131836z"/>
			</g>
		</g>
	</g>
	<g>
		<circle class="st2" cx="36.0872841" cy="38.689373" r="11.4591503"/>
		<path d="M36.0869141,50.6489258c-6.59375,0-11.9589844-5.3652344-11.9589844-11.9599609
			c0-6.59375,5.3652344-11.9589844,11.9589844-11.9589844c6.5947266,0,11.9599609,5.3652344,11.9599609,11.9589844
			C48.046875,45.2836914,42.6816406,50.6489258,36.0869141,50.6489258z M36.0869141,27.7299805
			c-6.0429688,0-10.9589844,4.9160156-10.9589844,10.9589844s4.9160156,10.9599609,10.9589844,10.9599609
			S47.046875,44.7319336,47.046875,38.6889648S42.1298828,27.7299805,36.0869141,27.7299805z"/>
	</g>
	<g>
		<g>
			<path class="st3" d="M34.0123863,33.6509399c0.5782509,0.5810852,0.8673744,1.2798042,0.8673744,2.0961571
				c0,0.8163567-0.2891235,1.5136566-0.8673744,2.0919075s-1.278389,0.8673744-2.1004105,0.8673744
				c-0.8163528,0-1.5136547-0.2891235-2.0919056-0.8673744s-0.8673763-1.2755508-0.8673763-2.0919075
				c0-0.8163528,0.2891254-1.5150719,0.8673763-2.0961571s1.2755527-0.8716278,2.0919056-0.8716278
				C32.7339973,32.7793121,33.4341354,33.0698547,34.0123863,33.6509399z M33.1577644,36.9843864
				c0.3429832-0.3429832,0.514473-0.7554131,0.514473-1.2372894c0-0.4818726-0.1714897-0.8943024-0.514473-1.2372856
				c-0.3429794-0.3429794-0.7582436-0.514473-1.2457886-0.514473c-0.4818745,0-0.8943043,0.1700745-1.2372856,0.5102234
				c-0.3429813,0.3401451-0.514473,0.753994-0.514473,1.2415352c0,0.4818764,0.1714916,0.8943062,0.514473,1.2372894
				c0.3429813,0.3429794,0.7554111,0.5144691,1.2372856,0.5144691
				C32.3995209,37.4988556,32.814785,37.3273659,33.1577644,36.9843864z M39.0295563,32.4646759h0.9439087l-6.8114471,12.4493942
				h-0.9439087L39.0295563,32.4646759z M42.354496,39.5397415c0.5782509,0.5782509,0.8673782,1.2755508,0.8673782,2.0919037
				c0,0.8163567-0.2891273,1.5136566-0.8673782,2.0919075c-0.5782471,0.5782509-1.2755508,0.8673744-2.0919037,0.8673744
				c-0.8220215,0-1.5221596-0.2891235-2.1004105-0.8673744s-0.8673744-1.2755508-0.8673744-2.0919075
				c0-0.8163528,0.2891235-1.5136528,0.8673744-2.0919037s1.278389-0.8673744,2.1004105-0.8673744
				C41.0789452,38.6723671,41.7762489,38.9614906,42.354496,39.5397415z M41.4998779,42.8689346
				c0.3429832-0.3429832,0.514473-0.7554131,0.514473-1.2372894c0-0.4818726-0.1714897-0.8943024-0.514473-1.2372856
				c-0.3429832-0.3429794-0.7554092-0.514473-1.2372856-0.514473c-0.487545,0-0.9028091,0.1714935-1.2457886,0.514473
				c-0.3429832,0.3429832-0.514473,0.7554131-0.514473,1.2372856c0,0.4818764,0.1714897,0.8943062,0.514473,1.2372894
				c0.3429794,0.3429794,0.7582436,0.5144691,1.2457886,0.5144691
				C40.7444687,43.3834038,41.1568947,43.2119141,41.4998779,42.8689346z"/>
		</g>
	</g>
</g>
</svg>
