<?xml version="1.0" encoding="UTF-8" standalone="no"?> <svg xmlns="http://www.w3.org/2000/svg" viewBox="0 0 64 64"><g id="Layer_10" data-name="Layer 10"><path d="M8,18.82H36.21c11.14-.42,11.14-16.4,0-16.82a8.42,8.42,0,0,0-8.41,8.41,2,2,0,0,0,4,0c.18-5.82,8.64-5.83,8.82,0a4.42,4.42,0,0,1-4.41,4.41H8A2,2,0,0,0,8,18.82Z"/><path d="M46.81,23.41a2,2,0,0,0,2-2,4.41,4.41,0,1,1,4.41,4.4H18a2,2,0,0,0,0,4H53.22a8.41,8.41,0,1,0-8.41-8.4A2,2,0,0,0,46.81,23.41Z"/><path d="M36.21,45.18H8a2,2,0,0,0,0,4H36.21a4.41,4.41,0,1,1-4.41,4.41,2,2,0,0,0-4,0c.42,11.14,16.4,11.14,16.82,0A8.42,8.42,0,0,0,36.21,45.18Z"/><path d="M53.22,34.19H25a2,2,0,0,0,0,4H53.22a4.41,4.41,0,1,1-4.41,4.4,2,2,0,0,0-4,0c.42,11.14,16.4,11.14,16.82,0A8.41,8.41,0,0,0,53.22,34.19Z"/></g></svg>